<?xml version="1.0" encoding="UTF-8"?><svg id="_レイヤー_2" xmlns="http://www.w3.org/2000/svg" viewBox="0 0 175.48 38.05"><g id="_レイヤー_1-2"><path d="m0,27.35c1.95.1,4.05.1,6,.1h22.65V5.25H6.35c-2.3,0-3.4.05-6,.15V1.05c2.25.15,3.95.15,6,.15h22.6c1.85,0,2.75-.05,4.25-.1-.1,1.6-.15,3.35-.15,7.95v16.15c0,4.5.05,6.55.15,8.75h-4.55v-2.45H6c-2.4,0-3.5.05-6,.15v-4.3Z"/><path d="m53.7,27.35c1.95.1,4.05.1,6,.1h22.65V5.25h-22.3c-2.3,0-3.4.05-6,.15V1.05c2.25.15,3.95.15,6,.15h22.6c1.85,0,2.75-.05,4.25-.1-.1,1.6-.15,3.35-.15,7.95v16.15c0,4.5.05,6.55.15,8.75h-4.55v-2.45h-22.65c-2.4,0-3.5.05-6,.15v-4.3Z"/><path d="m113.44,33.25h-4.5c.1-1.9.15-4.8.15-8.8V7.95c0-4.35-.1-6.45-.15-7.95,1.35.05,2.55.1,4.25.1h25c1.9,0,2.75,0,4.25-.1-.05,1.6-.15,3.35-.15,7.95v16.5c0,4.6.05,6.6.15,8.8h-4.5v-2.7h-24.5v2.7Zm24.5-6.7V4.1h-24.5v22.45h24.5Z"/><path d="m175.48,30.85c0,4-3.2,7.2-7.15,7.2s-7.2-3.2-7.2-7.2,3.2-7.15,7.2-7.15,7.15,3.2,7.15,7.15Zm-11.45,0c0,2.4,1.9,4.3,4.3,4.3s4.3-1.9,4.3-4.3-1.95-4.3-4.3-4.3-4.3,1.9-4.3,4.3Z"/></g></svg>