<?xml version="1.0" encoding="UTF-8"?><svg id="_レイヤー_2" xmlns="http://www.w3.org/2000/svg" viewBox="0 0 284.93 45.2"><g id="_レイヤー_1-2"><path d="m29.05,17.9c7.85,1.5,12.45,6.05,12.45,12.7,0,7.15-4.2,11.85-14.45,14-.45-1.65-.9-2.5-1.9-4,8.55-1.75,11.85-4.5,11.85-10.1,0-4.9-3.3-8.2-9.3-9.3-2.25,5.5-6.05,11.25-9.3,14.55.45,1.15.75,1.9,1.55,3.55-1.5.55-2.3.95-3.8,1.95-.4-.9-.75-1.75-1.1-2.7-2.8,2.15-5.25,3.15-8,3.15-4.45,0-7.05-2.6-7.05-6.9,0-6.1,5.5-12.15,12.35-14.95.05-3.2.15-5.25.5-8.35-1.3.05-3.2.1-3.85.1-.95,0-2.35,0-5.2-.05l-.15-4c3.1.15,4.55.2,5.9.2,1.1,0,2.15,0,3.75-.05.5-3.6.7-5.45.7-6.7l4.5.7c.4.05.65.3.65.65,0,.3-.1.45-.8.9-.3,1.45-.6,2.85-.85,4.3,5.6-.3,9.35-.9,13.3-2.15l.5,4c-4.45,1-8.25,1.5-14.35,1.9-.4,3.25-.55,4.7-.7,7.2,2.8-.75,5.15-1.1,8.7-1.1.7-1.8.85-2.35,1.15-3.6l3.85,1.1c.35.1.6.35.6.6s-.2.45-.9.8l-.6,1.6ZM4.1,34.8c0,1.95,1.2,3.25,3.05,3.25,2.05,0,4.35-1.1,6.7-3.25-.8-3-1.35-7-1.45-11-5.3,3.05-8.3,7-8.3,11Zm13.05-3c2.5-2.95,4.4-6,6.65-11.05-2.55.1-4.9.5-7.6,1.4,0,3.5.25,6.2.95,9.65Z"/><path d="m62.67,30.2c-1.2-4-1.7-7.7-1.7-13.15,0-4.45.35-8.95,1.1-13.25.1-.55.1-.7.15-1.5l4.75.8c.35.05.6.3.6.65,0,.4-.3.65-1.05.85-.85,4.1-1.2,7.45-1.2,12.65,0,4.15.45,7.4,1.65,11.5l-4.3,1.45ZM86.52,2.3c.45,0,.8.3.8.65,0,.4-.3.65-1,1,.5,6.2.75,11.1.75,16.3,0,14.35-4.5,20-19.35,24.95-.5-2-1.1-2.8-2.15-4.1,5.95-1.6,9.3-3.3,11.95-5.6,3.75-3.25,5.1-7.2,5.1-16,0-4.85-.25-9.2-.85-15.3-.05-.8-.15-1.2-.3-2.1l5.05.2Z"/><path d="m130.56,10.3c.45.2.65.4.65.65,0,.2-.2.4-.7.65-3.9,17.85-9.25,27.45-15.15,27.45-4.8,0-8.2-5-8.2-12,0-5.6,2.45-11.1,7.05-15.35,4.1-3.8,9.25-5.7,15.25-5.7,6.55,0,12.35,2.3,15.9,6.2,2.8,3,4.25,6.9,4.25,11.5,0,6.45-2.8,11.3-8.5,14.7-2.05,1.2-3.9,2-7.95,3.4-.75-2.05-1.1-2.7-2.1-4.05,5.4-1.55,7.7-2.65,10.2-4.85,2.45-2.1,3.9-5.6,3.9-9.4,0-6.85-4.55-12.05-11.8-13.45-.95-.2-2.85-.45-4.45-.45l1.65.7Zm-19.3,17.1c0,4,1.85,7.4,3.95,7.4,1.3,0,2.55-1,3.75-2.9,2.7-4.35,4.3-8.4,6.2-15.65.75-2.95,1.1-4.55,1.25-6.45-8.35,1-15.15,8.9-15.15,17.6Z"/><path d="m166.8,7.2c2.85.35,5.6.45,8.8.45,1.55,0,3.95.05,7.25-.1-.05-3.9-.15-5.65-.45-7.55l4.75.4c.5.05.8.25.8.55,0,.35-.25.55-.95.95,0,1.8-.05,3.55-.05,5.55,3.9,0,7.9-.4,12-1l.45,3.85c-4.45.5-8.25.7-12.45.9,0,2.55,0,5.1.05,7.65,4.05-.3,6.7-.65,10.5-1.4l.9,3.8c-4.3.85-7,1.2-11.25,1.45.1,2.9.2,5.85.35,8.75,4.45,1.5,6.75,2.7,12.05,6.1-1.2,1.35-1.6,2-2.3,3.6-3.95-2.9-5.95-4.15-9.7-5.7-.35,5.9-3.85,8.7-10.45,8.7s-10.2-2.6-10.2-7.1,3.65-7.25,9.95-7.25c1.9,0,3.35.15,6.45.65-.15-2.55-.25-5.05-.3-7.6-1.15.05-2.05.05-2.9.05-5.7,0-8.45-1-10.9-4.1l2.7-2.55c1.8,2.2,3.75,2.85,8.35,2.85.75,0,1.55,0,2.7-.05-.05-2.6-.05-4.8-.1-7.75-3.35.1-6,.1-7.8.1-2.85,0-5.4-.1-8.5-.4l.25-3.8Zm10,26.05c-3.7,0-5.85,1.35-5.85,3.65s2.25,3.55,6.2,3.55c4.2,0,6.25-1.7,6.25-6.2-3.05-.85-4.6-1-6.6-1Z"/><path d="m220.31,7.2c2.85.35,5.6.45,8.8.45,1.55,0,3.95.05,7.25-.1-.05-3.9-.15-5.65-.45-7.55l4.75.4c.5.05.8.25.8.55,0,.35-.25.55-.95.95,0,1.8-.05,3.55-.05,5.55,3.9,0,7.9-.4,12-1l.45,3.85c-4.45.5-8.25.7-12.45.9,0,2.55,0,5.1.05,7.65,4.05-.3,6.7-.65,10.5-1.4l.9,3.8c-4.3.85-7,1.2-11.25,1.45.1,2.9.2,5.85.35,8.75,4.45,1.5,6.75,2.7,12.05,6.1-1.2,1.35-1.6,2-2.3,3.6-3.95-2.9-5.95-4.15-9.7-5.7-.35,5.9-3.85,8.7-10.45,8.7s-10.2-2.6-10.2-7.1,3.65-7.25,9.95-7.25c1.9,0,3.35.15,6.45.65-.15-2.55-.25-5.05-.3-7.6-1.15.05-2.05.05-2.9.05-5.7,0-8.45-1-10.9-4.1l2.7-2.55c1.8,2.2,3.75,2.85,8.35,2.85.75,0,1.55,0,2.7-.05-.05-2.6-.05-4.8-.1-7.75-3.35.1-6,.1-7.8.1-2.85,0-5.4-.1-8.5-.4l.25-3.8Zm10,26.05c-3.7,0-5.85,1.35-5.85,3.65s2.25,3.55,6.2,3.55c4.2,0,6.25-1.7,6.25-6.2-3.05-.85-4.6-1-6.6-1Z"/><path d="m284.93,37.9c0,4-3.2,7.2-7.15,7.2s-7.2-3.2-7.2-7.2,3.2-7.15,7.2-7.15,7.15,3.2,7.15,7.15Zm-11.45,0c0,2.4,1.9,4.3,4.3,4.3s4.3-1.9,4.3-4.3-1.95-4.3-4.3-4.3-4.3,1.9-4.3,4.3Z"/></g></svg>