<?xml version="1.0" encoding="UTF-8"?><svg id="_レイヤー_2" xmlns="http://www.w3.org/2000/svg" viewBox="0 0 238.79 46.8"><g id="_レイヤー_1-2"><path d="m7.6,9.6c-1.45,2.05-3.1,3.9-5.3,6.1-.85-1.35-1.25-1.85-2.3-2.8C4.2,8.8,5.9,6.3,8.9,0l3.25,1.2c.45.15.7.45.7.7,0,.3-.15.4-1.2.65-.7,1.4-1.3,2.6-1.95,3.7h27c2.8,0,4.05,0,6.95-.15v3.65c-1.6-.05-4.2-.15-6.15-.15v8.35c3.75,0,5.5,0,8-.1v3.6c-1.85-.05-5.1-.1-8-.1v8.8c2.55,0,4.35-.05,6.7-.15v3.65c-1.85-.05-5.05-.15-6.95-.15H8.6c-2.75,0-4.05.05-7,.15v-3.65c1.7.1,4.15.15,6.25.15v-8.8c-3.15,0-4.4,0-7.35.1v-3.6c1.9.05,4.75.1,7.35.1v-8.35h-.25Zm1.2,27c.3.1.5.3.5.5,0,.3-.2.45-.85.65-1.5,4.1-2.75,6.1-5.55,8.75-1.05-1.2-1.6-1.7-2.85-2.65,3.2-3.15,4.1-4.6,5.35-8.55l3.4,1.3Zm7.8-18.65v-8.35h-5.05v8.35h5.05Zm0,12.2v-8.8h-5.05v8.8h5.05Zm-1.45,5.3c2.85,3.65,4.1,5.6,5.6,8.95l-3.5,1.95c-1.4-3.35-3.2-6.75-4.75-9.05l2.65-1.85Zm9.95-17.5v-8.35h-4.85v8.35h4.85Zm0,12.2v-8.8h-4.85v8.8h4.85Zm1.1,5.2c3.4,3.5,4.75,5.3,6.6,8.6l-3.35,2.2c-1.8-3.4-4-6.7-5.8-8.8l2.55-2Zm7.6-17.4v-8.35h-5.05v8.35h5.05Zm0,12.2v-8.8h-5.05v8.8h5.05Zm9,16.05c-2.25-3.35-5.2-6.55-7.9-8.6l2.45-2.35c3.8,2.7,6.65,5.4,8.8,8.35l-3.35,2.6Z"/><path d="m67.25,30.35c-2.55,2.9-5.55,5.7-9.45,8.85-.95-1.35-1.4-1.85-2.65-2.75,4.35-3.35,6.25-5.05,8.8-8.05,4-4.6,7.4-9.7,10.05-15.15h-7.3c-3.65,0-5.85.05-8.95.15v-3.75c2.1.1,6.35.15,8.95.15h8.8c1.35-3.2,2.4-6.45,3.2-9.8l3.85,1c.4.1.65.35.65.65,0,.35-.1.45-1.1.8-.85,2.8-1.65,5.15-2.55,7.35h8.05l.65-.8,2.75,2.4c.3.25.45.5.45.75,0,.35-.25.55-.9.8l-.2.1-1.5,5.6h3.4l.65-.85,2.8,2.4c.3.25.4.5.4.75,0,.35-.15.55-.9.8l-.2.1-1.3,5h3.65l.75-.9,2.75,2.4c.3.3.4.5.4.75,0,.35-.15.55-.85.8l-.15.05c-.45,4-.75,5.65-1.35,8-.85,3.25-1.7,5.05-2.95,6.35-1.25,1.4-3.6,2-7.9,2h-.3c-.35-2.45-.5-2.9-1.1-4.35h.75c.55.05,2.15.1,2.95.1,2.8,0,3.65-.9,4.75-4.8.45-1.65.85-4,1.25-6.9h-29.1Zm.05,5.1c.35.1.5.25.5.5,0,.2-.1.35-.25.45l-.35.2c-1,5-1.7,6.7-3.8,9.4-1.25-1.1-1.85-1.5-3.3-2.2,2.45-3.05,3.5-5.55,3.8-9l3.4.65ZM65.8.35c2.6,2.4,3.8,3.95,5.65,7.05l-3.25,2.2c-2.1-3.75-3-5-5.05-7.2l2.65-2.05Zm7.2,34c1.9,3.5,2.7,5.35,3.85,9l-3.65,1.35c-1-3.65-1.7-5.6-3.3-9.15l3.1-1.2Zm16.75-7.5l1.25-4.75h-17.65c-1,1.65-2.1,3.2-3.25,4.75h19.65Zm-3.4-13.6h-8.25c-.85,1.85-1.75,3.6-2.75,5.4h9.55l1.45-5.4Zm-6.4,19.4c2.3,2.95,3.25,4.55,4.85,7.95l-3.55,1.55c-1.4-3.3-2.3-5-4.25-8l2.95-1.5Zm9.15,6.95c-2.1-3.25-2.95-4.4-5-6.75l2.65-1.7c2.3,2.25,3.45,3.6,5.45,6.45l-3.1,2Z"/><path d="m120.2,46h-4.05c.1-1.9.15-4.85.15-8.75V14.75c0-3.95-.05-5.65-.15-7.95.95.05,1.8.1,2.95.1h9.65c.95-2.2,1.55-4.55,2.2-6.85l3.8,1.25c.45.15.65.3.65.55,0,.3-.2.45-.95.75-1,2.45-1.45,3.55-1.8,4.3h12.15c1.3,0,1.9,0,2.95-.1-.1,1.65-.15,4.9-.15,7.95v21.6c0,4.45.05,6.55.15,8.8h-4.05v-2.05h-23.5v2.9Zm23.5-28.75v-6.7h-23.5v6.7h23.5Zm-23.5,10.9h23.5v-7.3h-23.5v7.3Zm0,11.3h23.5v-7.65h-23.5v7.65Z"/><path d="m186.25,9.5c-2.05,8.1-3.85,12.15-7.4,16.8-3.45,4.45-6.75,7.1-13.15,10.45-.85-1.4-1.25-1.9-2.15-2.95,5.95-3.1,8.9-5.35,11.9-9.05-1.85-1.55-3.7-3.2-5.8-4.5-1.05,1.45-2.3,2.85-4.05,4.75-1.05-1.45-1.4-1.85-2.4-2.7,3.75-4,5.9-7.25,7.95-12,1.1-2.6,1.75-4.75,2.95-9.9l3.35.8c.7.15.85.25.85.5,0,.3-.05.35-.9.7-.35,1.35-.7,2.6-1.05,3.75h7.6l.6-.8,2.7,2.45c.3.25.45.5.45.75,0,.3-.25.55-.85.75l-.6.2Zm-13.45,27.35c.35.15.5.3.5.55,0,.3-.2.45-.9.65-1.35,3.9-2.95,6.3-5.85,8.75-1.05-1.35-1.55-1.85-2.8-2.85,3-2.65,4.2-4.45,5.7-8.55l3.35,1.45Zm.35-22.35c-.35.65-1.4,2.65-1.7,3.05,2.2,1.2,4.3,2.55,6.25,4.15.55-.9,1.1-1.85,1.6-2.85-2-1.5-3.95-3.1-6.15-4.35Zm2.1-4.85c-.25.65-.5,1.3-.75,1.95,2.15,1.15,4.3,2.3,6.25,3.8.7-1.9,1.25-3.8,1.7-5.75h-7.2Zm22.35,7.35c1.15,3.15,2.3,5.1,4.15,7.4,2.4,2.95,4.65,4.7,8.95,7.05-1.15,1.15-1.6,1.7-2.65,3.2-4.35-2.65-6.6-4.6-9.05-8-1.55-2.15-2.65-4.05-3.55-6.45-1,3-2.4,5.3-4.7,7.6-3.35,3.4-6.85,5.4-12.5,7.15-.65-1.5-.95-2.1-1.75-3.25,4.65-1.6,6.45-2.4,8.8-4.05,3.3-2.3,5.7-5.45,6.9-9.15.15-.5.3-.95.45-1.5h-1.35c-1.95,0-2.85.05-4.95.1v-3.8c1.4.05,3.5.1,4.95.1h2.05c.4-3.05.6-7,.65-12.65l3.6.5c.7.1.95.25.95.55s-.15.45-.9.75c-.15,5.6-.3,8.2-.7,10.85h7.5c1.95,0,2.85-.05,5-.1v3.8c-1.45-.05-3.55-.1-5-.1h-6.85Zm-16.35,29.4c-1.75-3.95-2.7-5.75-4.45-8.3l2.75-1.8c2.55,3.05,3.75,4.85,5.3,8.15l-3.6,1.95Zm11.95-.6c-1.95-3.7-3.1-5.5-5.1-8.05l2.65-2c2.75,2.9,4.1,4.65,5.9,7.9l-3.45,2.15Zm7.75-42.4c3.2,2.4,4.1,3.3,5.8,5.6l-2.7,2.3c-1.75-2.3-2.75-3.4-5.2-5.75l2.1-2.15Zm.9,32.35c3.6,2.45,5.85,4.65,8.2,7.85l-3.4,2.7c-2.3-3.5-4.5-5.95-7.25-8.15l2.45-2.4Z"/><path d="m238.79,38.75c0,4-3.2,7.2-7.15,7.2s-7.2-3.2-7.2-7.2,3.2-7.15,7.2-7.15,7.15,3.2,7.15,7.15Zm-11.45,0c0,2.4,1.9,4.3,4.3,4.3s4.3-1.9,4.3-4.3-1.95-4.3-4.3-4.3-4.3,1.9-4.3,4.3Z"/></g></svg>